<svg xmlns="http://www.w3.org/2000/svg" version="1.1" xmlns:xlink="http://www.w3.org/1999/xlink" xmlns:svgjs="http://svgjs.dev/svgjs" width="2000" height="1252" viewBox="0 0 2000 1252"><g transform="matrix(1,0,0,1,-1.2121212121212466,1.9140188067979125)"><svg viewBox="0 0 396 248" data-background-color="#a8dfea" preserveAspectRatio="xMidYMid meet" height="1252" width="2000" xmlns="http://www.w3.org/2000/svg" xmlns:xlink="http://www.w3.org/1999/xlink"><g id="tight-bounds" transform="matrix(1,0,0,1,0.2400000000000091,0.4000000000000057)"><svg viewBox="0 0 395.52 247.2" height="247.2" width="395.52"><g><svg></svg></g><g><svg viewBox="0 0 395.52 247.2" height="247.2" width="395.52"><mask id="c2591b7d-0656-407c-999b-bdbd00aba112"><rect width="640" height="400" fill="white"></rect><g transform="matrix(1,0,0,1,39.55199999999999,77.12512741312742)"><svg viewBox="0 0 316.416 92.94974517374516" height="92.94974517374516" width="316.416"><g><svg viewBox="0 0 316.416 92.94974517374516" height="92.94974517374516" width="316.416"><g><svg viewBox="0 0 316.416 92.94974517374516" height="92.94974517374516" width="316.416"><g><svg viewBox="0 0 316.416 92.94974517374516" height="92.94974517374516" width="316.416"><g id="SvgjsG3801"><svg viewBox="0 0 316.416 92.94974517374516" height="92.94974517374516" width="316.416" id="SvgjsSvg3800"><g><svg viewBox="0 0 316.416 92.94974517374516" height="92.94974517374516" width="316.416"><g transform="matrix(1,0,0,1,0,0)"><svg width="316.416" viewBox="-2.45 -40.35 156.39 46.65" height="92.94974517374516" data-palette-color="#000000"><g class="wordmark-text-0" data-fill-palette-color="primary" id="SvgjsG3799"><path d="M18.2-20.8L18.95-20.9Q19.3-19.85 19.3-18.6L19.3-18.6Q19.3-17.4 19.25-16.75L19.25-16.75 19.2-14.5Q19.2-13.75 19.25-13.18 19.3-12.6 19.3-12.15L19.3-12.15Q19.3-11.65 17.88-11.43 16.45-11.2 13.9-11L13.9-11Q13.55-10.95 13.23-10.95 12.9-10.95 12.65-10.9L12.65-10.9Q12.3-5.85 12.3-0.6L12.3-0.6 12.3 1.4Q10.1 1.65 6.45 1.65L6.45 1.65Q3.25 1.65 2.55 1.15L2.55 1.15 2.55 0.5Q1.75 0.35 1.55 0.15L1.55 0.15Q1.55-10.05 1.6-14.8L1.6-14.8 1.65-34.45Q3.35-34.8 7.45-35.08 11.55-35.35 15.45-35.35L15.45-35.35Q21.4-35.35 25-34.5L25-34.5 25-33.7Q25.2-33.6 26-33.5L26-33.5Q26-32.25 26.05-31.45L26.05-31.45 26.1-28.65Q26.1-27.5 25.95-25.25L25.95-25.25 21.35-25Q14.9-24.65 12.5-24.45L12.5-24.45Q12.2-23.35 12.2-22.7L12.2-22.7 12.15-22.15Q12.15-21.65 12.9-21.65L12.9-21.65Q16-21.65 17.95-21.9L17.95-21.9Q18.1-21.55 18.2-20.8L18.2-20.8ZM17.8-13.15Q17.7-14.25 17.7-15L17.7-15 17.75-17.4Q17.8-18.15 17.8-19.5L17.8-19.5Q17.8-20.9 17.65-21.35L17.65-21.35Q16.8-21.2 15.28-21.2 13.75-21.2 13.3-21.2L13.3-21.2Q12.25-21.2 11.73-21.35 11.2-21.5 10.95-22.03 10.7-22.55 10.7-23.7L10.7-23.7Q10.7-24.95 11.15-25.9L11.15-25.9Q13.35-26.1 19.7-26.45L19.7-26.45Q22-26.5 24.5-26.7L24.5-26.7Q24.55-27.15 24.55-28.3L24.55-28.3 24.55-30.35 24.5-34.1Q21.5-34.85 15.45-34.85L15.45-34.85Q11.55-34.85 7.7-34.58 3.85-34.3 2.15-34L2.15-34 2.15-26.85 2.1-15.3Q2.05-12.15 2.05-5.7L2.05-5.7 2.1-0.05Q2.45 0.15 5.45 0.15L5.45 0.15Q9 0.15 10.8-0.05L10.8-0.05 10.8-1.6Q10.9-8.7 11.2-12.3L11.2-12.3 11.25-12.3Q12.25-12.5 14.45-12.7L14.45-12.7Q16.65-12.9 17.65-13.05L17.65-13.05Q17.8-13.05 17.8-13.15L17.8-13.15ZM48-28.8Q48.65-27.4 48.82-25.93 49-24.45 49-22.35L49-22.35 49-19.25Q49-18.5 48.95-15.6 48.9-12.7 48.7-10.25L48.7-10.25 48.55-8.6Q48.15-4 46.55-1.6L46.55-1.6Q45.15 0.35 42.42 1.28 39.7 2.2 36.85 2.2L36.85 2.2Q33.45 2.2 31 1.13 28.55 0.05 27.25-2.65L27.25-2.65 27.25-2.6Q26.45-3.95 26.2-5.7 25.95-7.45 25.9-9.9L25.9-9.9Q25.9-11.05 25.85-11.6L25.85-11.6Q25.6-15.85 25.6-19.5L25.6-19.5 25.6-21.35Q25.6-25.8 26.4-29.15 27.2-32.5 29.8-34L29.8-34Q32.95-35.55 36.7-35.55L36.7-35.55Q39.3-35.55 41.77-34.68 44.25-33.8 45.65-32.1L45.65-32.1Q47.3-30.45 48-28.75L48-28.75 48-28.8ZM36.7-35Q34.4-35 32.25-34.43 30.1-33.85 28.9-32.65L28.9-32.65Q27.15-30.7 26.62-27.88 26.1-25.05 26.1-21.35L26.1-21.35 26.1-19.6Q26.1-17.6 26.2-15.13 26.3-12.65 26.35-11.65L26.35-11.65 26.5-8.4Q26.6-3.25 28.97-1.28 31.35 0.7 35.85 0.7L35.85 0.7Q38.6 0.7 41.22-0.2 43.85-1.1 45.15-2.9L45.15-2.9Q46.7-5.3 47.05-9.65L47.05-9.65 47.2-11.3Q47.45-14.5 47.45-18.9L47.45-18.9 47.45-23.95Q47.45-25.8 47.27-27.1 47.1-28.4 46.55-29.6L46.55-29.6Q45.6-32.3 42.85-33.65 40.1-35 36.7-35L36.7-35ZM41.2-17.4L41.2-15 41.2-13.3Q41.2-10.75 41.02-9.7 40.85-8.65 40.1-7.85L40.1-7.85Q39.5-7.1 38.5-6.7 37.5-6.3 36.45-6.3L36.45-6.3Q34.55-6.3 33.57-7.28 32.6-8.25 32.27-9.65 31.95-11.05 31.8-13.3L31.8-13.3Q31.7-14.9 31.6-15.55L31.6-15.55Q31.5-17.25 31.5-18.1L31.5-18.1Q31.5-28.15 37.05-28.15L37.05-28.15Q39.6-28.15 40.35-25.73 41.1-23.3 41.1-20.8L41.1-20.8 41.2-17.4ZM40.6-20.8L40.6-21Q40.55-21.4 40.47-22.98 40.4-24.55 39.82-25.6 39.25-26.65 38.1-26.65L38.1-26.65Q36.55-26.65 35.25-25.45 33.95-24.25 33.55-22.6L33.55-22.6 33.55-22.65Q33.05-20.45 33.05-17.1L33.05-17.1Q33.05-15.45 33.1-14.6L33.1-14.6 33.1-14.65Q33.3-13.25 33.4-11.85L33.4-11.85Q33.45-11.55 33.57-10.2 33.7-8.85 34.05-7.65L34.05-7.65 34-7.7 34.15-7.4Q35.15-6.8 36.45-6.8L36.45-6.8Q38.5-6.8 39.75-8.2L39.75-8.2 39.7-8.15Q40.4-9 40.55-9.83 40.7-10.65 40.7-13.05L40.7-13.05 40.7-15 40.7-17.4 40.6-20.8ZM49.9-35.35Q53.5-35.85 55.62-36.1 57.75-36.35 60-36.35L60-36.35Q64.05-36.35 66.97-35.4 69.9-34.45 71.9-32.15L71.9-32.15Q75.5-27.7 75.5-23.9L75.5-23.9Q75.5-21.75 74.55-19.53 73.59-17.3 71.8-15.7 70-14.1 67.55-13.85L67.55-13.85Q68.45-12.25 70.7-8.95L70.7-8.95Q72.7-6.05 73.95-3.9 75.2-1.75 76.09 0.7L76.09 0.7 76.4 1.35 75.7 1.35Q74.9 1.35 73 1.45L73 1.45Q70.8 1.55 69.65 1.55L69.65 1.55Q68.59 1.55 67 1.45L67 1.45Q66.9 1.3 66.8 1.03 66.7 0.75 66.52 0.6 66.34 0.45 66 0.45L66 0.45Q63.4-5.7 60.65-9.95L60.65-9.95 60.65-8.65Q60.65-7.25 60.9-2.75L60.9-2.75Q61.05-0.65 61.05 0.75L61.05 0.75Q60 1.25 58.72 1.4 57.45 1.55 55.7 1.55L55.7 1.55 53.5 1.5 50.6 1.5Q50.55 0.5 50.55-0.65L50.55-0.65 50.5-5.2 50.5-9.25Q50.5-17.05 50.32-25.25 50.15-33.45 49.9-35.35L49.9-35.35ZM65.75-15.25L66-15.3Q68.55-15.5 70.34-16.98 72.15-18.45 73.05-20.6 73.95-22.75 73.95-24.9L73.95-24.9Q73.95-27.55 72.62-30 71.3-32.45 68.92-34 66.55-35.55 63.65-35.65L63.65-35.65Q62-35.85 59.95-35.85L59.95-35.85Q57.7-35.85 55.72-35.63 53.75-35.4 50.5-34.95L50.5-34.95Q50.75-33.5 50.9-26.05 51.05-18.6 51.05-10.15L51.05-10.15 51.05-5Q51.05-2.6 51-1.65L51-1.65 51-0.1Q51.15-0.05 51.35-0.05L51.35-0.05Q52-0.05 52.4 0L52.4 0 54.4 0.05Q56.25 0.05 57.5-0.08 58.75-0.2 59.55-0.55L59.55-0.55Q59.15-5.5 59.15-9.6L59.15-9.6Q59.15-11.5 59.3-12.75L59.3-12.75 59.4-12.6Q61.3-10.3 63.15-6.78 65-3.25 66.34-0.05L66.34-0.05 66.4-0.05Q68.09 0.05 69 0.05L69 0.05Q70.09 0.05 72.09-0.05L72.09-0.05Q73.9-0.15 74.65-0.15L74.65-0.15Q73.75-2.55 72.4-4.83 71.05-7.1 69.09-9.95L69.09-9.95Q68.59-10.75 67.52-12.38 66.45-14 65.75-15.25L65.75-15.25ZM61.35-28.75Q63.05-28.75 64.15-27.73 65.25-26.7 65.25-24.95L65.25-24.95Q65.25-23.15 64.22-22.4 63.2-21.65 60.9-21.65L60.9-21.65Q59.35-21.65 58.1-21.8L58.1-21.8 58.05-21.8Q57.9-22.65 57.9-25.3L57.9-25.3 57.8-27.95Q59.6-28.75 61.35-28.75L61.35-28.75ZM62.35-27.25Q60.95-27.25 59.3-26.6L59.3-26.6Q59.4-25.3 59.4-24.3L59.4-24.3 59.35-22.85 59.4-22.15 60.9-22.15Q62.05-22.15 63.1-22.3L63.1-22.3 63.05-22.3Q63.9-22.5 64.34-23.23 64.8-23.95 64.8-24.95L64.8-24.95Q64.8-27.25 62.35-27.25L62.35-27.25ZM99.69-32.45Q99.94-27.1 99.94-22.8L99.94-22.8Q99.94-14.15 99.09-6.5L99.09-6.5Q98.59-2.6 95.79-0.15 92.99 2.3 88.84 2.3L88.84 2.3Q85.69 2.3 82.79 1.13 79.89-0.05 78.04-2.25 76.19-4.45 76.09-7.35L76.09-7.35Q76.09-10.95 76.19-18.15L76.19-18.15Q76.34-23.7 76.34-29.4L76.34-29.4Q76.34-32.95 76.29-34.5L76.29-34.5Q77.54-34.5 78.19-34.55L78.19-34.55 80.29-34.6Q82.64-34.6 84.34-34.1L84.34-34.1 84.29-33.35Q84.44-33.3 84.79-33.25 85.14-33.2 85.34-33.1L85.34-33.1Q85.14-29.35 85.14-24.2L85.14-24.2Q85.14-17 85.79-8.2L85.79-8.2 85.79-8.3Q85.89-7.75 86.27-7.58 86.64-7.4 87.24-7.4L87.24-7.4Q88.19-7.4 88.94-7.95 89.69-8.5 89.94-9.5L89.94-9.5 89.94-9.4Q90.19-15.1 90.19-23.15L90.19-23.15Q90.29-30.45 90.39-34.05L90.39-34.05Q93.09-34.45 95.54-34.45L95.54-34.45Q96.59-34.45 97.29-34.33 97.99-34.2 98.49-33.85L98.49-33.85 98.69-33.45 98.69-33.2Q99.24-33.05 99.49-32.85L99.49-32.85 99.69-32.45ZM95.44-33.95Q93.59-33.95 90.89-33.6L90.89-33.6Q90.84-31.5 90.79-28.53 90.74-25.55 90.74-23.95L90.74-23.95Q90.64-14.2 90.44-9.4L90.44-9.4Q90.19-8.25 89.27-7.58 88.34-6.9 87.24-6.9L87.24-6.9Q86.24-6.9 85.42-7.48 84.59-8.05 84.29-9.15L84.29-9.15Q83.64-16.95 83.64-25.2L83.64-25.2Q83.64-29.95 83.84-33.7L83.84-33.7 83.84-33.75Q82.49-34.1 80.49-34.1L80.49-34.1 78.39-34.05Q77.84-34 76.79-34L76.79-34 76.74-34 76.79-33.95 76.84-29.25Q76.84-23.75 76.69-18.2L76.69-18.2Q76.59-11 76.59-7.35L76.59-7.35Q76.64-4.7 78.29-2.85 79.94-1 82.49-0.1 85.04 0.8 87.84 0.8L87.84 0.8Q92.04 0.8 94.59-1.45 97.14-3.7 97.59-7.55L97.59-7.55Q98.44-14.6 98.44-23.8L98.44-23.8Q98.44-28.1 98.19-33.45L98.19-33.45Q97.39-33.95 95.44-33.95L95.44-33.95ZM124.29 1.6Q122.89 1.4 121.09 1.4L121.09 1.4 118.69 1.45Q117.99 1.5 116.69 1.5L116.69 1.5Q116.64 1.15 116.64 0.45L116.64 0.45 115.69 0.5Q115.54-2.2 115.54-8.45L115.54-8.45 115.44-14.6Q115.29-14.2 114.87-13 114.44-11.8 114.04-11.23 113.64-10.65 113.29-10.65L113.29-10.65Q112.89-10.65 112.29-11.65L112.29-11.65Q111.54-11.7 110.49-14.2L110.49-14.2Q110.44-13 110.44-10.7L110.44-10.7Q110.44-6.3 110.94 1.3L110.94 1.3Q108.99 1.6 106.79 1.6L106.79 1.6 105.19 1.65Q103.99 1.65 103.32 1.43 102.64 1.2 102.64 0.5L102.64 0.5 102.39 0.5Q101.99 0.5 101.69-0.1L101.69-0.1Q101.59-0.4 101.57-2.48 101.54-4.55 101.54-8.25L101.54-8.25Q101.54-21.8 101.69-34.65L101.69-34.65Q103.04-35.1 104.74-35.1L104.74-35.1Q105.69-35.1 106.19-35.05L106.19-35.05 107.79-35Q108.69-35 109.24-35.05L109.24-35.05 109.94-34 110.24-34.05Q111.19-32.95 112.34-29.55L112.34-29.55 112.79-28.3Q113.14-29.95 113.92-32.08 114.69-34.2 115.39-35.2L115.39-35.2Q116.09-35.1 116.59-35.1L116.59-35.1Q117.49-35.1 119.89-35.2L119.89-35.2Q121.84-35.35 123.49-35.35L123.49-35.35 123.44-34.35 124.49-34.35Q124.44-33.1 124.44-30.05L124.44-30.05 124.49-24.8Q124.54-23.05 124.54-19.5L124.54-19.5 124.54-17.65Q124.54-15.8 124.44-14.85L124.44-14.85 124.44-14.9 124.29 1.6ZM122.94-15.9Q123.04-16.9 123.04-18.85L123.04-18.85 123.04-20.8Q123.04-24.2 122.99-25.9L122.99-25.9 122.94-31.05Q122.94-33.6 122.99-34.85L122.99-34.85Q121.44-34.85 119.49-34.7L119.49-34.7 116.39-34.6Q115.69-34.6 115.59-34.65L115.59-34.65Q115.14-34.05 114.59-32.48 114.04-30.9 113.59-29.4L113.59-29.4Q113.29-28.4 113.02-27.6 112.74-26.8 112.64-26.85L112.64-26.85Q112.34-26.85 111.94-27.75 111.54-28.65 110.74-30.7L110.74-30.7Q110.29-31.95 109.84-33.08 109.39-34.2 109.04-34.55L109.04-34.55 108.99-34.55Q108.44-34.5 107.24-34.5L107.24-34.5 105.44-34.55 104.64-34.55Q102.99-34.55 102.19-34.3L102.19-34.3Q102.04-21.5 102.04-8.25L102.04-8.25Q102.04-2.95 102.12-1.48 102.19 0 102.39 0L102.39 0 106.14 0.05Q108.04 0.05 109.39-0.15L109.39-0.15Q108.94-7 108.94-11.7L108.94-11.7Q108.94-15.45 109.24-19.1L109.24-19.1 109.39-18.6 109.79-17.55Q110.59-15.25 111.24-13.7 111.89-12.15 112.34-12.15L112.34-12.15Q112.54-12.15 113.04-13.35 113.54-14.55 114.04-15.95L114.04-15.95Q115.14-18.85 115.49-19.45L115.49-19.45Q115.94-15.4 116.04-6.75L116.04-6.75Q116.04-5.6 116.09-3.48 116.14-1.35 116.19 0L116.19 0 119.34-0.05 121.14-0.05Q121.69-0.05 122.79 0.05L122.79 0.05 122.94-15.9ZM149.24-22.2Q147.04-21.85 145.14-21.85L145.14-21.85Q142.79-21.85 141.04-22.35L141.04-22.35Q141.09-22.5 141.09-23.1L141.09-23.1Q140.39-23.2 140.04-23.35L140.04-23.35Q140.09-23.5 140.09-24L140.09-24Q140.09-25.05 139.59-25.4 139.09-25.75 138.19-25.75L138.19-25.75Q137.19-25.75 136.49-25.15 135.79-24.55 135.79-23.4L135.79-23.4Q135.79-22.6 136.14-22.38 136.49-22.15 136.99-22.1 137.49-22.05 137.69-22L137.69-22Q140.79-21.55 143.56-19.63 146.34-17.7 148.01-14.98 149.69-12.25 149.69-9.45L149.69-9.45Q149.69-6.1 148.19-3.55 146.69-1 144.21 0.38 141.74 1.75 138.84 1.75L138.84 1.75Q135.54 1.75 132.34 0.28 129.14-1.2 127.11-3.78 125.09-6.35 125.09-9.4L125.09-9.4 125.14-10.05 125.14-10.75Q126.49-10.95 128.04-10.95L128.04-10.95 130.94-10.9Q131.94-10.85 133.79-10.85L133.79-10.85Q133.79-10.3 133.94-9.85L133.94-9.85 134.79-9.85Q134.79-8.6 135.34-8.13 135.89-7.65 136.99-7.65L136.99-7.65Q138.09-7.65 138.84-8.25 139.59-8.85 139.59-9.95L139.59-9.95Q139.59-11.5 138.44-12.1 137.29-12.7 136.09-12.93 134.89-13.15 134.54-13.2L134.54-13.2 133.79-13.35Q132.29-13.65 131.29-14.33 130.29-15 129.14-16.15L129.14-16.15Q125.64-19.5 125.64-24.1L125.64-24.1Q125.64-27.2 127.19-29.8 128.74-32.4 131.41-33.93 134.09-35.45 137.34-35.45L137.34-35.45Q140.69-35.45 143.56-34.2 146.44-32.95 148.19-30.6 149.94-28.25 149.94-25.05L149.94-25.05Q149.94-23.8 149.64-22.2L149.64-22.2 149.24-22.2ZM148.19-23.7Q148.44-25.1 148.44-26.05L148.44-26.05Q148.44-30.5 145.26-32.73 142.09-34.95 137.34-34.95L137.34-34.95Q134.19-34.95 131.64-33.5 129.09-32.05 127.61-29.55 126.14-27.05 126.14-24.1L126.14-24.1Q126.14-22.35 126.89-20.33 127.64-18.3 129.19-16.75 130.74-15.2 132.89-14.85L132.89-14.85Q133.34-14.75 135.49-14.33 137.64-13.9 138.86-12.8 140.09-11.7 140.09-9.95L140.09-9.95Q140.09-8.55 139.19-7.85 138.29-7.15 136.99-7.15L136.99-7.15Q135.54-7.15 134.46-7.98 133.39-8.8 133.29-10.35L133.29-10.35Q131.74-10.35 130.94-10.4L130.94-10.4 128.24-10.45Q126.84-10.45 125.64-10.3L125.64-10.3 125.64-9.45Q125.64-6.5 127.44-4.3 129.24-2.1 132.06-0.93 134.89 0.25 137.89 0.25L137.89 0.25Q140.64 0.25 142.99-0.98 145.34-2.2 146.76-4.63 148.19-7.05 148.19-10.4L148.19-10.4Q148.19-13.15 146.74-15.58 145.29-18 142.86-19.6 140.44-21.2 137.64-21.5L137.64-21.5Q134.29-21.85 134.29-24.45L134.29-24.45Q134.29-25.8 135.14-26.53 135.99-27.25 137.19-27.25L137.19-27.25Q138.59-27.25 139.64-26.45 140.69-25.65 140.69-24.35L140.69-24.35Q140.69-23.9 140.64-23.75L140.64-23.75Q142.29-23.3 144.09-23.3L144.09-23.3Q145.64-23.3 148.14-23.7L148.14-23.7 148.19-23.7Z" fill="black" stroke-width="7" stroke="black" stroke-linejoin="round"></path></g></svg></g></svg></g></svg></g></svg></g></svg></g></svg></g></svg></g></mask><g transform="matrix(1,0,0,1,39.55199999999999,77.12512741312742)"><svg viewBox="0 0 316.416 92.94974517374516" height="92.94974517374516" width="316.416"><g><svg viewBox="0 0 316.416 92.94974517374516" height="92.94974517374516" width="316.416"><g><svg viewBox="0 0 316.416 92.94974517374516" height="92.94974517374516" width="316.416"><g><svg viewBox="0 0 316.416 92.94974517374516" height="92.94974517374516" width="316.416"><g id="textblocktransform"><svg viewBox="0 0 316.416 92.94974517374516" height="92.94974517374516" width="316.416" id="textblock"><g><svg viewBox="0 0 316.416 92.94974517374516" height="92.94974517374516" width="316.416"><g transform="matrix(1,0,0,1,0,0)"><svg width="316.416" viewBox="-2.45 -40.35 156.39 46.65" height="92.94974517374516" data-palette-color="#000000"><g class="wordmark-text-0" data-fill-palette-color="primary" id="text-0"><path d="M18.2-20.8L18.95-20.9Q19.3-19.85 19.3-18.6L19.3-18.6Q19.3-17.4 19.25-16.75L19.25-16.75 19.2-14.5Q19.2-13.75 19.25-13.18 19.3-12.6 19.3-12.15L19.3-12.15Q19.3-11.65 17.88-11.43 16.45-11.2 13.9-11L13.9-11Q13.55-10.95 13.23-10.95 12.9-10.95 12.65-10.9L12.65-10.9Q12.3-5.85 12.3-0.6L12.3-0.6 12.3 1.4Q10.1 1.65 6.45 1.65L6.45 1.65Q3.25 1.65 2.55 1.15L2.55 1.15 2.55 0.5Q1.75 0.35 1.55 0.15L1.55 0.15Q1.55-10.05 1.6-14.8L1.6-14.8 1.65-34.45Q3.35-34.8 7.45-35.08 11.55-35.35 15.45-35.35L15.45-35.35Q21.4-35.35 25-34.5L25-34.5 25-33.7Q25.2-33.6 26-33.5L26-33.5Q26-32.25 26.05-31.45L26.05-31.45 26.1-28.65Q26.1-27.5 25.95-25.25L25.95-25.25 21.35-25Q14.9-24.65 12.5-24.45L12.5-24.45Q12.2-23.35 12.2-22.7L12.2-22.7 12.15-22.15Q12.15-21.65 12.9-21.65L12.9-21.65Q16-21.65 17.95-21.9L17.95-21.9Q18.1-21.55 18.2-20.8L18.2-20.8ZM17.8-13.15Q17.7-14.25 17.7-15L17.7-15 17.75-17.4Q17.8-18.15 17.8-19.5L17.8-19.5Q17.8-20.9 17.65-21.35L17.65-21.35Q16.8-21.2 15.28-21.2 13.75-21.2 13.3-21.2L13.3-21.2Q12.25-21.2 11.73-21.35 11.2-21.5 10.95-22.03 10.7-22.55 10.7-23.7L10.7-23.7Q10.7-24.95 11.15-25.9L11.15-25.9Q13.35-26.1 19.7-26.45L19.7-26.45Q22-26.5 24.5-26.7L24.5-26.7Q24.55-27.15 24.55-28.3L24.55-28.3 24.55-30.35 24.5-34.1Q21.5-34.85 15.45-34.85L15.45-34.85Q11.55-34.85 7.7-34.58 3.85-34.3 2.15-34L2.15-34 2.15-26.85 2.1-15.3Q2.05-12.15 2.05-5.7L2.05-5.7 2.1-0.05Q2.45 0.15 5.45 0.15L5.45 0.15Q9 0.15 10.8-0.05L10.8-0.05 10.8-1.6Q10.9-8.7 11.2-12.3L11.2-12.3 11.25-12.3Q12.25-12.5 14.45-12.7L14.45-12.7Q16.65-12.9 17.65-13.05L17.65-13.05Q17.8-13.05 17.8-13.15L17.8-13.15ZM48-28.8Q48.65-27.4 48.82-25.93 49-24.45 49-22.35L49-22.35 49-19.25Q49-18.5 48.95-15.6 48.9-12.7 48.7-10.25L48.7-10.25 48.55-8.6Q48.15-4 46.55-1.6L46.55-1.6Q45.15 0.35 42.42 1.28 39.7 2.2 36.85 2.2L36.85 2.2Q33.45 2.2 31 1.13 28.55 0.05 27.25-2.65L27.25-2.65 27.25-2.6Q26.45-3.95 26.2-5.7 25.95-7.45 25.9-9.9L25.9-9.9Q25.9-11.05 25.85-11.6L25.85-11.6Q25.6-15.85 25.6-19.5L25.6-19.5 25.6-21.35Q25.6-25.8 26.4-29.15 27.2-32.5 29.8-34L29.8-34Q32.95-35.55 36.7-35.55L36.7-35.55Q39.3-35.55 41.77-34.68 44.25-33.8 45.65-32.1L45.65-32.1Q47.3-30.45 48-28.75L48-28.75 48-28.8ZM36.7-35Q34.4-35 32.25-34.43 30.1-33.85 28.9-32.65L28.9-32.65Q27.15-30.7 26.62-27.88 26.1-25.05 26.1-21.35L26.1-21.35 26.1-19.6Q26.1-17.6 26.2-15.13 26.3-12.65 26.35-11.65L26.35-11.65 26.5-8.4Q26.6-3.25 28.97-1.28 31.35 0.7 35.85 0.7L35.85 0.7Q38.6 0.7 41.22-0.2 43.85-1.1 45.15-2.9L45.15-2.9Q46.7-5.3 47.05-9.65L47.05-9.65 47.2-11.3Q47.45-14.5 47.45-18.9L47.45-18.9 47.45-23.95Q47.45-25.8 47.27-27.1 47.1-28.4 46.55-29.6L46.55-29.6Q45.6-32.3 42.85-33.65 40.1-35 36.7-35L36.7-35ZM41.2-17.4L41.2-15 41.2-13.3Q41.2-10.75 41.02-9.7 40.85-8.65 40.1-7.85L40.1-7.85Q39.5-7.1 38.5-6.7 37.5-6.3 36.45-6.3L36.45-6.3Q34.55-6.3 33.57-7.28 32.6-8.25 32.27-9.65 31.95-11.05 31.8-13.3L31.8-13.3Q31.7-14.9 31.6-15.55L31.6-15.55Q31.5-17.25 31.5-18.1L31.5-18.1Q31.5-28.15 37.05-28.15L37.05-28.15Q39.6-28.15 40.35-25.73 41.1-23.3 41.1-20.8L41.1-20.8 41.2-17.4ZM40.6-20.8L40.6-21Q40.55-21.4 40.47-22.98 40.4-24.55 39.82-25.6 39.25-26.65 38.1-26.65L38.1-26.65Q36.55-26.65 35.25-25.45 33.95-24.25 33.55-22.6L33.55-22.6 33.55-22.65Q33.05-20.45 33.05-17.1L33.05-17.1Q33.05-15.45 33.1-14.6L33.1-14.6 33.1-14.65Q33.3-13.25 33.4-11.85L33.4-11.85Q33.45-11.55 33.57-10.2 33.7-8.85 34.05-7.65L34.05-7.65 34-7.7 34.15-7.4Q35.15-6.8 36.45-6.8L36.45-6.8Q38.5-6.8 39.75-8.2L39.75-8.2 39.7-8.15Q40.4-9 40.55-9.83 40.7-10.65 40.7-13.05L40.7-13.05 40.7-15 40.7-17.4 40.6-20.8ZM49.9-35.35Q53.5-35.85 55.62-36.1 57.75-36.35 60-36.35L60-36.35Q64.05-36.35 66.97-35.4 69.9-34.45 71.9-32.15L71.9-32.15Q75.5-27.7 75.5-23.9L75.5-23.9Q75.5-21.75 74.55-19.53 73.59-17.3 71.8-15.7 70-14.1 67.55-13.85L67.55-13.85Q68.45-12.25 70.7-8.95L70.7-8.95Q72.7-6.05 73.95-3.9 75.2-1.75 76.09 0.7L76.09 0.7 76.4 1.35 75.7 1.35Q74.9 1.35 73 1.45L73 1.45Q70.8 1.55 69.65 1.55L69.65 1.55Q68.59 1.55 67 1.45L67 1.45Q66.9 1.3 66.8 1.03 66.7 0.75 66.52 0.6 66.34 0.45 66 0.45L66 0.45Q63.4-5.7 60.65-9.95L60.65-9.95 60.65-8.65Q60.65-7.25 60.9-2.75L60.9-2.75Q61.05-0.65 61.05 0.75L61.05 0.75Q60 1.25 58.72 1.4 57.45 1.55 55.7 1.55L55.7 1.55 53.5 1.5 50.6 1.5Q50.55 0.5 50.55-0.65L50.55-0.65 50.5-5.2 50.5-9.25Q50.5-17.05 50.32-25.25 50.15-33.45 49.9-35.35L49.9-35.35ZM65.75-15.25L66-15.3Q68.55-15.5 70.34-16.98 72.15-18.45 73.05-20.6 73.95-22.75 73.95-24.9L73.95-24.9Q73.95-27.55 72.62-30 71.3-32.45 68.92-34 66.55-35.55 63.65-35.65L63.65-35.65Q62-35.85 59.95-35.85L59.95-35.85Q57.7-35.85 55.72-35.63 53.75-35.4 50.5-34.95L50.5-34.95Q50.75-33.5 50.9-26.05 51.05-18.6 51.05-10.15L51.05-10.15 51.05-5Q51.05-2.6 51-1.65L51-1.65 51-0.1Q51.15-0.05 51.35-0.05L51.35-0.05Q52-0.05 52.4 0L52.4 0 54.4 0.05Q56.25 0.05 57.5-0.08 58.75-0.2 59.55-0.55L59.55-0.55Q59.15-5.5 59.15-9.6L59.15-9.6Q59.15-11.5 59.3-12.75L59.3-12.75 59.4-12.6Q61.3-10.3 63.15-6.78 65-3.25 66.34-0.05L66.34-0.05 66.4-0.05Q68.09 0.05 69 0.05L69 0.05Q70.09 0.05 72.09-0.05L72.09-0.05Q73.9-0.15 74.65-0.15L74.65-0.15Q73.75-2.55 72.4-4.83 71.05-7.1 69.09-9.95L69.09-9.95Q68.59-10.75 67.52-12.38 66.45-14 65.75-15.25L65.75-15.25ZM61.35-28.75Q63.05-28.75 64.15-27.73 65.25-26.7 65.25-24.95L65.25-24.95Q65.25-23.15 64.22-22.4 63.2-21.65 60.9-21.65L60.9-21.65Q59.35-21.65 58.1-21.8L58.1-21.8 58.05-21.8Q57.9-22.65 57.9-25.3L57.9-25.3 57.8-27.95Q59.6-28.75 61.35-28.75L61.35-28.75ZM62.35-27.25Q60.95-27.25 59.3-26.6L59.3-26.6Q59.4-25.3 59.4-24.3L59.4-24.3 59.35-22.85 59.4-22.15 60.9-22.15Q62.05-22.15 63.1-22.3L63.1-22.3 63.05-22.3Q63.9-22.5 64.34-23.23 64.8-23.95 64.8-24.95L64.8-24.95Q64.8-27.25 62.35-27.25L62.35-27.25ZM99.69-32.45Q99.94-27.1 99.94-22.8L99.94-22.8Q99.94-14.15 99.09-6.5L99.09-6.5Q98.59-2.6 95.79-0.15 92.99 2.3 88.84 2.3L88.84 2.3Q85.69 2.3 82.79 1.13 79.89-0.05 78.04-2.25 76.19-4.45 76.09-7.35L76.09-7.35Q76.09-10.95 76.19-18.15L76.19-18.15Q76.34-23.7 76.34-29.4L76.34-29.4Q76.34-32.95 76.29-34.5L76.29-34.5Q77.54-34.5 78.19-34.55L78.19-34.55 80.29-34.6Q82.64-34.6 84.34-34.1L84.34-34.1 84.29-33.35Q84.44-33.3 84.79-33.25 85.14-33.2 85.34-33.1L85.34-33.1Q85.14-29.35 85.14-24.2L85.14-24.2Q85.14-17 85.79-8.2L85.79-8.2 85.79-8.3Q85.89-7.75 86.27-7.58 86.64-7.4 87.24-7.4L87.24-7.4Q88.19-7.4 88.94-7.95 89.69-8.5 89.94-9.5L89.94-9.5 89.94-9.4Q90.19-15.1 90.19-23.15L90.19-23.15Q90.29-30.45 90.39-34.05L90.39-34.05Q93.09-34.45 95.54-34.45L95.54-34.45Q96.59-34.45 97.29-34.33 97.99-34.2 98.49-33.85L98.49-33.85 98.69-33.45 98.69-33.2Q99.24-33.05 99.49-32.85L99.49-32.85 99.69-32.45ZM95.44-33.95Q93.59-33.95 90.89-33.6L90.89-33.6Q90.84-31.5 90.79-28.53 90.74-25.55 90.74-23.95L90.74-23.95Q90.64-14.2 90.44-9.4L90.44-9.4Q90.19-8.25 89.27-7.58 88.34-6.9 87.24-6.9L87.24-6.9Q86.24-6.9 85.42-7.48 84.59-8.05 84.29-9.15L84.29-9.15Q83.64-16.95 83.64-25.2L83.64-25.2Q83.64-29.95 83.84-33.7L83.84-33.7 83.84-33.75Q82.49-34.1 80.49-34.1L80.49-34.1 78.39-34.05Q77.84-34 76.79-34L76.79-34 76.74-34 76.79-33.95 76.84-29.25Q76.84-23.75 76.69-18.2L76.69-18.2Q76.59-11 76.59-7.35L76.59-7.35Q76.64-4.7 78.29-2.85 79.94-1 82.49-0.1 85.04 0.8 87.84 0.8L87.84 0.8Q92.04 0.8 94.59-1.45 97.14-3.7 97.59-7.55L97.59-7.55Q98.44-14.6 98.44-23.8L98.44-23.8Q98.44-28.1 98.19-33.45L98.19-33.45Q97.39-33.95 95.44-33.95L95.44-33.95ZM124.29 1.6Q122.89 1.4 121.09 1.4L121.09 1.4 118.69 1.45Q117.99 1.5 116.69 1.5L116.69 1.5Q116.64 1.15 116.64 0.45L116.64 0.45 115.69 0.5Q115.54-2.2 115.54-8.45L115.54-8.45 115.44-14.6Q115.29-14.2 114.87-13 114.44-11.8 114.04-11.23 113.64-10.65 113.29-10.65L113.29-10.65Q112.89-10.65 112.29-11.65L112.29-11.65Q111.54-11.7 110.49-14.2L110.49-14.2Q110.44-13 110.44-10.7L110.44-10.7Q110.44-6.3 110.94 1.3L110.94 1.3Q108.99 1.6 106.79 1.6L106.79 1.6 105.19 1.65Q103.99 1.65 103.32 1.43 102.64 1.2 102.64 0.5L102.64 0.5 102.39 0.5Q101.99 0.5 101.69-0.1L101.69-0.1Q101.59-0.4 101.57-2.48 101.54-4.55 101.54-8.25L101.54-8.25Q101.54-21.8 101.69-34.65L101.69-34.65Q103.04-35.1 104.74-35.1L104.74-35.1Q105.69-35.1 106.19-35.05L106.19-35.05 107.79-35Q108.69-35 109.24-35.05L109.24-35.05 109.94-34 110.24-34.05Q111.19-32.95 112.34-29.55L112.34-29.55 112.79-28.3Q113.14-29.95 113.92-32.08 114.69-34.2 115.39-35.2L115.39-35.2Q116.09-35.1 116.59-35.1L116.59-35.1Q117.49-35.1 119.89-35.2L119.89-35.2Q121.84-35.35 123.49-35.35L123.49-35.35 123.44-34.35 124.49-34.35Q124.44-33.1 124.44-30.05L124.44-30.05 124.49-24.8Q124.54-23.05 124.54-19.5L124.54-19.5 124.54-17.65Q124.54-15.8 124.44-14.85L124.44-14.85 124.44-14.9 124.29 1.6ZM122.94-15.9Q123.04-16.9 123.04-18.85L123.04-18.85 123.04-20.8Q123.04-24.2 122.99-25.9L122.99-25.9 122.94-31.05Q122.94-33.6 122.99-34.85L122.99-34.85Q121.44-34.85 119.49-34.7L119.49-34.7 116.39-34.6Q115.69-34.6 115.59-34.65L115.59-34.65Q115.14-34.05 114.59-32.48 114.04-30.9 113.59-29.4L113.59-29.4Q113.29-28.4 113.02-27.6 112.74-26.8 112.64-26.85L112.64-26.85Q112.34-26.85 111.94-27.75 111.54-28.65 110.74-30.7L110.74-30.7Q110.29-31.95 109.84-33.08 109.39-34.2 109.04-34.55L109.04-34.55 108.99-34.55Q108.44-34.5 107.24-34.5L107.24-34.5 105.44-34.55 104.64-34.55Q102.99-34.55 102.19-34.3L102.19-34.3Q102.04-21.5 102.04-8.25L102.04-8.25Q102.04-2.95 102.12-1.48 102.19 0 102.39 0L102.39 0 106.14 0.05Q108.04 0.05 109.39-0.15L109.39-0.15Q108.94-7 108.94-11.7L108.94-11.7Q108.94-15.45 109.24-19.1L109.24-19.1 109.39-18.6 109.79-17.55Q110.59-15.25 111.24-13.7 111.89-12.15 112.34-12.15L112.34-12.15Q112.54-12.15 113.04-13.35 113.54-14.55 114.04-15.95L114.04-15.95Q115.14-18.85 115.49-19.45L115.49-19.45Q115.94-15.4 116.04-6.75L116.04-6.75Q116.04-5.6 116.09-3.48 116.14-1.35 116.19 0L116.19 0 119.34-0.05 121.14-0.05Q121.69-0.05 122.79 0.05L122.79 0.05 122.94-15.9ZM149.24-22.2Q147.04-21.85 145.14-21.85L145.14-21.85Q142.79-21.85 141.04-22.35L141.04-22.35Q141.09-22.5 141.09-23.1L141.09-23.1Q140.39-23.2 140.04-23.35L140.04-23.35Q140.09-23.5 140.09-24L140.09-24Q140.09-25.05 139.59-25.4 139.09-25.75 138.19-25.75L138.19-25.75Q137.19-25.75 136.49-25.15 135.79-24.55 135.79-23.4L135.79-23.4Q135.79-22.6 136.14-22.38 136.49-22.15 136.99-22.1 137.49-22.05 137.69-22L137.69-22Q140.79-21.55 143.56-19.63 146.34-17.7 148.01-14.98 149.69-12.25 149.69-9.45L149.69-9.45Q149.69-6.1 148.19-3.55 146.69-1 144.21 0.38 141.74 1.75 138.84 1.75L138.84 1.75Q135.54 1.75 132.34 0.28 129.14-1.2 127.11-3.78 125.09-6.35 125.09-9.4L125.09-9.4 125.14-10.05 125.14-10.75Q126.49-10.95 128.04-10.95L128.04-10.95 130.94-10.9Q131.94-10.85 133.79-10.85L133.79-10.85Q133.79-10.3 133.94-9.85L133.94-9.85 134.79-9.85Q134.79-8.6 135.34-8.13 135.89-7.65 136.99-7.65L136.99-7.65Q138.09-7.65 138.84-8.25 139.59-8.85 139.59-9.95L139.59-9.95Q139.59-11.5 138.44-12.1 137.29-12.7 136.09-12.93 134.89-13.15 134.54-13.2L134.54-13.2 133.79-13.35Q132.29-13.65 131.29-14.33 130.29-15 129.14-16.15L129.14-16.15Q125.64-19.5 125.64-24.1L125.64-24.1Q125.64-27.2 127.19-29.8 128.74-32.4 131.41-33.93 134.09-35.45 137.34-35.45L137.34-35.45Q140.69-35.45 143.56-34.2 146.44-32.95 148.19-30.6 149.94-28.25 149.94-25.05L149.94-25.05Q149.94-23.8 149.64-22.2L149.64-22.2 149.24-22.2ZM148.19-23.7Q148.44-25.1 148.44-26.05L148.44-26.05Q148.44-30.5 145.26-32.73 142.09-34.95 137.34-34.95L137.34-34.95Q134.19-34.95 131.64-33.5 129.09-32.05 127.61-29.55 126.14-27.05 126.14-24.1L126.14-24.1Q126.14-22.35 126.89-20.33 127.64-18.3 129.19-16.75 130.74-15.2 132.89-14.85L132.89-14.85Q133.34-14.75 135.49-14.33 137.64-13.9 138.86-12.8 140.09-11.7 140.09-9.95L140.09-9.95Q140.09-8.55 139.19-7.85 138.29-7.15 136.99-7.15L136.99-7.15Q135.54-7.15 134.46-7.98 133.39-8.8 133.29-10.35L133.29-10.35Q131.74-10.35 130.94-10.4L130.94-10.4 128.24-10.45Q126.84-10.45 125.64-10.3L125.64-10.3 125.64-9.45Q125.64-6.5 127.44-4.3 129.24-2.1 132.06-0.93 134.89 0.25 137.89 0.25L137.89 0.25Q140.64 0.25 142.99-0.98 145.34-2.2 146.76-4.63 148.19-7.05 148.19-10.4L148.19-10.4Q148.19-13.15 146.74-15.58 145.29-18 142.86-19.6 140.44-21.2 137.64-21.5L137.64-21.5Q134.29-21.85 134.29-24.45L134.29-24.45Q134.29-25.8 135.14-26.53 135.99-27.25 137.19-27.25L137.19-27.25Q138.59-27.25 139.64-26.45 140.69-25.65 140.69-24.35L140.69-24.35Q140.69-23.9 140.64-23.75L140.64-23.75Q142.29-23.3 144.09-23.3L144.09-23.3Q145.64-23.3 148.14-23.7L148.14-23.7 148.19-23.7Z" fill="#000000" data-fill-palette-color="primary"></path></g></svg></g></svg></g></svg></g></svg></g></svg></g></svg></g></svg></g><g mask="url(#c2591b7d-0656-407c-999b-bdbd00aba112)"><g transform="matrix(5.663014409831672, 0, 0, 5.663014409831672, 47.859926842216424, 1)"><svg xmlns="http://www.w3.org/2000/svg" viewBox="5.53 10.351505195836442 52.94002886432323 43.29849480416355" x="0" y="0" height="43.29849480416355" width="52.94002886432323" class="icon-none" data-fill-palette-color="accent" id="none"><g fill="#000000" data-fill-palette-color="accent"><path d="M6.144 14.307A1 1 0 0 1 6.896 13.107L12.415 11.849A1 1 0 0 1 12.86 13.8L7.341 15.059A1 1 0 0 1 7.117 15.084 1 1 0 0 1 6.144 14.307M15.887 13.086A1 1 0 0 0 16.11 13.061L17.728 12.692A1 1 0 0 0 17.282 10.742L15.665 11.112A1 1 0 0 0 15.887 13.086M22.84 37.4A1.05 1.05 0 0 0 22.18 37.64L16.01 43.03V38.4A1 1 0 0 0 15.01 37.4H7.53V19.118L36.1 12.608V25.128L38.1 25.688V11.348A1.02 1.02 0 0 0 37.73 10.568 1 1 0 0 0 36.88 10.378L6.3 17.348A1 1 0 0 0 5.53 18.318V38.4A1 1 0 0 0 6.53 39.4H14.01V45.24A1.02 1.02 0 0 0 14.59 46.15 1.1 1.1 0 0 0 15.01 46.24 1.02 1.02 0 0 0 15.67 45.99L23.21 39.4H28.35V37.4ZM41.817 49.227H35.072A1 1 0 0 0 35.072 51.227H41.817A1 1 0 0 0 41.817 49.227M32 49.227H31.162A1 1 0 0 0 31.162 51.227H32A1 1 0 0 0 32 49.227M57.75 31.258L38.1 25.688V38.4A1 1 0 0 1 37.1 39.4H28.35V46.23A1 1 0 0 0 29.35 47.23H43.01L49.5 53.37A1 1 0 0 0 50.19 53.65 1.2 1.2 0 0 0 50.56 53.58 1.01 1.01 0 0 0 51.19 52.71L51.57 47.23H57.47A1 1 0 0 0 58.47 46.23V32.218A0.99 0.99 0 0 0 57.75 31.258M28.74 23.458A0.99 0.99 0 0 0 28.35 24.258V37.4H36.1V25.128L29.62 23.288A1.03 1.03 0 0 0 28.74 23.458" fill="#000000" data-fill-palette-color="accent"></path></g></svg></g></g></svg></g><defs></defs></svg><rect width="395.52" height="247.2" fill="none" stroke="none" visibility="hidden"></rect></g></svg></g></svg>